HIERARCHY
ROOT root
{
	OFFSET	0	13.1	24.9
	CHANNELS 6  Xposition Yposition Zposition Xrotation Yrotation Zrotation
	JOINT spine_1
	{
		OFFSET	0	9.99999	0
		CHANNELS 3  Xrotation Yrotation Zrotation
		JOINT spine_2
		{
			OFFSET	0	112	-10
			CHANNELS 3  Xrotation Yrotation Zrotation
			JOINT spine_3
			{
				OFFSET	0	206.5	19.3
				CHANNELS 3  Xrotation Yrotation Zrotation
				JOINT spine_4
				{
					OFFSET	0	110.4	14.6
					CHANNELS 3  Xrotation Yrotation Zrotation
					JOINT neck_1
					{
						OFFSET	0	71.8	-50.3
						CHANNELS 3  Xrotation Yrotation Zrotation
						JOINT neck_2
						{
							OFFSET	0	86.2	-25.8
							CHANNELS 3  Xrotation Yrotation Zrotation
							JOINT head_ee
							{
								OFFSET	0	179.8	-8.7
								CHANNELS 3  Xrotation Yrotation Zrotation
								End Site
								{
									OFFSET	1	0	0
								}
							}
						}
					}
					JOINT left_clavicle
					{
						OFFSET	-43.2	22.4	-70.8
						CHANNELS 3  Xrotation Yrotation Zrotation
						JOINT left_shoulder
						{
							OFFSET	-93.9	-5.79999	48.7
							CHANNELS 3  Xrotation Yrotation Zrotation
							JOINT left_elbow
							{
								OFFSET	-291.4	-30.8	15.2
								CHANNELS 3  Xrotation Yrotation Zrotation
								JOINT left_lowarm_twist
								{
									OFFSET	-110.7	-3.89999	13.6
									CHANNELS 3  Xrotation Yrotation Zrotation
									JOINT left_hand
									{
										OFFSET	-110.7	-3.89999	13.6
										CHANNELS 3  Xrotation Yrotation Zrotation
										JOINT left_ee
										{
											OFFSET	-80.8	-5.10001	12.1
											CHANNELS 3  Xrotation Yrotation Zrotation
											End Site
											{
												OFFSET	1	0	0
											}
										}
									}
								}
							}
						}
					}
					JOINT right_clavicle
					{
						OFFSET	43.2	22.4	-70.8
						CHANNELS 3  Xrotation Yrotation Zrotation
						JOINT right_shoulder
						{
							OFFSET	93.9	-5.79999	48.7
							CHANNELS 3  Xrotation Yrotation Zrotation
							JOINT right_elbow
							{
								OFFSET	291.4	-30.8	15.2
								CHANNELS 3  Xrotation Yrotation Zrotation
								JOINT right_lowarm_twist
								{
									OFFSET	110.7	-3.89999	13.6
									CHANNELS 3  Xrotation Yrotation Zrotation
									JOINT right_hand
									{
										OFFSET	110.7	-3.89999	13.6
										CHANNELS 3  Xrotation Yrotation Zrotation
										JOINT right_ee
										{
											OFFSET	80.8	-5.10001	12.1
											CHANNELS 3  Xrotation Yrotation Zrotation
											End Site
											{
												OFFSET	1	0	0
											}
										}
									}
								}
							}
						}
					}
				}
			}
		}
	}
	JOINT left_hip
	{
		OFFSET	-82.8	-127.5	0.300001
		CHANNELS 3  Xrotation Yrotation Zrotation
		JOINT left_knee
		{
			OFFSET	-28.2	-396.7	2.2
			CHANNELS 3  Xrotation Yrotation Zrotation
			JOINT left_ankle
			{
				OFFSET	-11.7	-411.3	35.4
				CHANNELS 3  Xrotation Yrotation Zrotation
				JOINT left_toes
				{
					OFFSET	0	-60	-88.6
					CHANNELS 3  Xrotation Yrotation Zrotation
					JOINT left_foot_ee
					{
						OFFSET	-22.5	-16.5	-42.2
						CHANNELS 3  Xrotation Yrotation Zrotation
						End Site
						{
							OFFSET	1	0	0
						}
					}
				}
			}
		}
	}
	JOINT right_hip
	{
		OFFSET	82.8	-127.5	0.300001
		CHANNELS 3  Xrotation Yrotation Zrotation
		JOINT right_knee
		{
			OFFSET	28.2	-396.7	2.2
			CHANNELS 3  Xrotation Yrotation Zrotation
			JOINT right_ankle
			{
				OFFSET	11.7	-411.3	35.4
				CHANNELS 3  Xrotation Yrotation Zrotation
				JOINT right_toes
				{
					OFFSET	0	-60	-88.6
					CHANNELS 3  Xrotation Yrotation Zrotation
					JOINT right_foot_ee
					{
						OFFSET	22.5	-16.5	-42.2
						CHANNELS 3  Xrotation Yrotation Zrotation
						End Site
						{
							OFFSET	1	0	0
						}
					}
				}
			}
		}
	}
}
MOTION
Frames: 6
Frame Time: 0.02
2931.06 710.1 -603.72 146.916 -82.3717 148.887 -0.987348 -0.721362 -2.37191 -0.984399 -0.569015 -2.41298 -0.957484 -0.00791483 -2.47911 -0.965838 -0.399226 -2.44678 -7.90165 10.4874 8.68346 -7.7249 13.4236 10.8356 -0.0 0.0 -0.0 7.79037 5.98 15.0041 9.67026 -25.6271 56.5617 2.44134 -50.4057 1.14909 -59.3991 -5.20812 5.08208 -2.80362 16.5721 -10.4724 -0.0 0.0 -0.0 -0.591043 4.33002 1.69793 -14.0789 9.59986 -72.5187 0.402573 11.2783 -0.0397507 19.3277 -0.271373 2.44234 -1.57409 -27.8772 -2.31768 0.0 0.0 0.0 -19.8143 -3.26861 3.95495 0.886526 -0.0375197 -0.130866 41.4835 16.1639 -5.08296 -39.4275 0.0 0.0 -0.0 0.0 -0.0 23.7933 19.3458 -2.6178 2.24918 0.0991335 0.330869 -2.87293 4.91143 -0.43503 -32.4204 0.0 0.0 0.0 0.0 0.0 
2946.85 708.652 -602.049 147.185 -82.7291 149.096 -0.97468 -0.773055 -2.44836 -0.971556 -0.615743 -2.49255 -0.941604 -0.0361653 -2.56718 -0.950529 -0.441018 -2.5293 -6.99872 10.4518 7.5933 -6.85755 13.9469 9.67401 -0.0 0.0 -0.0 7.94933 7.01286 15.2568 8.1285 -25.6836 56.3122 2.45575 -50.571 1.16021 -59.1486 -5.17706 5.07389 -2.61511 16.0866 -9.55385 -0.0 0.0 -0.0 -0.244657 5.26237 1.1187 -13.9321 9.32259 -72.3443 0.408964 11.4527 -0.0410102 19.6502 -0.268868 2.48345 -1.58593 -27.7985 -2.21755 0.0 0.0 0.0 -19.1162 -3.432 4.21698 -1.3094 0.051696 0.194292 41.7822 14.9408 -5.08829 -39.122 0.0 0.0 -0.0 0.0 -0.0 24.1418 20.1566 -3.0301 0.775843 0.0327248 0.114559 -3.52935 4.92221 -0.535215 -32.0132 0.0 0.0 0.0 0.0 0.0 
2973.43 708.459 -595.992 140.773 -83.6674 142.379 -1.0496 -0.770745 -2.19516 -1.04714 -0.629536 -2.23972 -1.01985 -0.10362 -2.32416 -1.02708 -0.469281 -2.27867 -5.07692 10.455 7.00237 -4.92943 13.9906 8.91971 -0.0 0.0 -0.0 7.77815 6.60921 14.9543 7.13714 -25.4037 57.8014 2.36725 -49.5366 1.09236 -58.8126 -5.13546 5.06268 -2.55435 17.0545 -8.67103 -0.0 0.0 -0.0 0.375192 5.00472 -0.158134 -15.1377 9.30375 -72.291 0.42149 11.7938 -0.0435339 19.565 -0.269552 2.47259 -1.50309 -27.5271 -2.54662 0.0 0.0 0.0 -20.2858 -3.92177 3.73068 -1.94637 0.075233 0.289212 41.3559 13.8019 -5.0347 -38.9459 0.0 0.0 -0.0 0.0 -0.0 24.6307 20.753 -3.22589 -5.11174 -0.176457 -0.764397 -1.1427 4.32223 -0.17193 -30.3257 0.0 0.0 0.0 0.0 0.0 
2993.41 707.794 -588.023 142.598 -83.9051 144.066 -1.00493 -0.676689 -2.11659 -1.0026 -0.540666 -2.15533 -0.979862 -0.0377576 -2.22176 -0.986541 -0.388084 -2.18795 -3.55014 10.4208 6.75214 -3.39107 13.8037 8.54255 -0.0 0.0 -0.0 7.73221 6.2324 14.8838 5.10432 -25.0732 57.4626 2.21934 -47.7043 0.981358 -58.3355 -5.07651 5.04635 -2.53146 16.367 -8.88693 -0.0 0.0 -0.0 0.351796 5.12518 -0.097485 -14.4174 9.54261 -73.1817 0.469547 13.0944 -0.0538901 19.8566 -0.267143 2.50977 -1.48105 -26.9311 -2.39986 0.0 0.0 0.0 -20.3155 -4.17483 3.53072 -4.59919 0.161852 0.687093 41.2298 14.1734 -5.02901 -38.709 0.0 0.0 -0.0 0.0 -0.0 25.0192 20.939 -3.85324 -8.39771 -0.253595 -1.26269 1.02385 5.1029 0.15369 -29.2421 0.0 0.0 0.0 0.0 0.0 
3014.89 707.219 -579.613 145.272 -83.7046 146.505 -0.999777 -0.463788 -2.03687 -0.99753 -0.333265 -2.06224 -0.983515 0.143394 -2.08406 -0.989528 -0.18747 -2.08056 -1.56249 10.3843 5.96265 -1.39857 13.9569 7.57934 -0.0 0.0 -0.0 7.46387 5.88432 14.3909 3.06382 -24.7686 58.1 2.07006 -45.7144 0.872685 -57.9078 -5.02376 5.03129 -2.39196 15.644 -8.3908 -0.0 0.0 -0.0 0.799236 5.08395 -1.00072 -13.916 9.15539 -73.1309 0.4764 13.2787 -0.0554534 19.6702 -0.268705 2.48601 -1.59906 -27.378 -1.95457 0.0 0.0 0.0 -21.638 -4.27041 3.61517 -5.27947 0.181086 0.789721 40.957 14.2197 -5.00593 -38.5202 0.0 0.0 -0.0 0.0 -0.0 25.3918 20.8421 -4.80301 -10.7551 -0.291266 -1.62245 0.812385 4.41455 0.121674 -28.4876 0.0 0.0 0.0 0.0 0.0 
3035.32 708.15 -570.662 141.739 -83.9038 142.94 -0.96645 -0.439702 -2.02238 -0.964228 -0.310149 -2.04625 -0.951206 0.161127 -2.06333 -0.957109 -0.166688 -2.06289 2.05979 10.9778 4.52734 2.27893 15.4826 5.8491 -0.0 0.0 -0.0 7.39738 5.08839 14.2902 0.633939 -23.974 59.2518 1.91473 -43.4814 0.7636 -57.4381 -4.96597 5.0143 -2.31969 16.2779 -7.61935 -0.0 0.0 -0.0 1.21366 5.60812 -1.77954 -12.6361 9.80808 -72.9143 0.412769 11.5564 -0.041769 19.6693 -0.268712 2.48589 -1.58927 -26.7542 -1.72379 0.0 0.0 0.0 -21.417 -4.36655 3.54421 -7.31732 0.231389 1.09839 37.959 15.4386 -4.75151 -38.9197 0.0 0.0 -0.0 0.0 -0.0 24.7487 20.7627 -5.32995 -12.7134 -0.311283 -1.92223 2.5566 4.02076 0.380508 -27.4151 0.0 0.0 0.0 0.0 0.0 
